HIERARCHY
ROOT Hips
{
    OFFSET 0.0 0.0 0.0
    CHANNELS 6 Xposition Yposition Zposition Zrotation Xrotation Yrotation
    JOINT LeftHipJoint
    {
        OFFSET 0.1 0.0 0.0
        CHANNELS 3 Zrotation Xrotation Yrotation
        JOINT LeftUpLeg
        {
            OFFSET 126.64528123005715 0.0 0.0
            CHANNELS 3 Zrotation Xrotation Yrotation
            JOINT LeftLeg
            {
                OFFSET 0.0 0.0 -407.97291302369104
                CHANNELS 3 Zrotation Xrotation Yrotation
                JOINT LeftFoot
                {
                    OFFSET 0.0 0.0 -391.29666652917206
                    CHANNELS 3 Zrotation Xrotation Yrotation
                    End Site
                    {
                        OFFSET 0.0 -0.1 0.0
                    }
                }
            }
        }
    }
    JOINT LowerBack
    {
        OFFSET 0.0 0.0 0.1
        CHANNELS 3 Zrotation Xrotation Yrotation
        JOINT Spine
        {
            OFFSET 0.0 0.0 219.4380878611606
            CHANNELS 3 Zrotation Xrotation Yrotation
            JOINT Spine1
            {
                OFFSET 0.0 0.0 253.58633117323473
                CHANNELS 3 Zrotation Xrotation Yrotation
                JOINT LeftShoulder
                {
                    OFFSET 0.1 0.0 0.0
                    CHANNELS 3 Zrotation Xrotation Yrotation
                    JOINT LeftArm
                    {
                        OFFSET 142.263793834907 0.0 0.0
                        CHANNELS 3 Zrotation Xrotation Yrotation
                        JOINT LeftForeArm
                        {
                            OFFSET 260.8548383095221 0.0 0.0
                            CHANNELS 3 Zrotation Xrotation Yrotation
                            JOINT LeftHand
                            {
                                OFFSET 229.3443791512955 0.0 0.0
                                CHANNELS 3 Zrotation Xrotation Yrotation
                                End Site
                                {
                                    OFFSET 0.1 0.0 0.0
                                }
                            }
                        }
                    }
                }
                JOINT Neck
                {
                    OFFSET 0.0 0.0 0.1
                    CHANNELS 3 Zrotation Xrotation Yrotation
                    JOINT Neck1
                    {
                        OFFSET 0.0 0.0 111.04190971192557
                        CHANNELS 3 Zrotation Xrotation Yrotation
                        End Site
                        {
                            OFFSET 0.0 0.0 119.94616515192898
                        }
                    }
                }
                JOINT RightShoulder
                {
                    OFFSET -0.1 0.0 0.0
                    CHANNELS 3 Zrotation Xrotation Yrotation
                    JOINT RightArm
                    {
                        OFFSET -142.263793834907 0.0 0.0
                        CHANNELS 3 Zrotation Xrotation Yrotation
                        JOINT RightForeArm
                        {
                            OFFSET -260.8548383095221 0.0 0.0
                            CHANNELS 3 Zrotation Xrotation Yrotation
                            JOINT RightHand
                            {
                                OFFSET -229.3443791512955 0.0 0.0
                                CHANNELS 3 Zrotation Xrotation Yrotation
                                End Site
                                {
                                    OFFSET -0.1 0.0 0.0
                                }
                            }
                        }
                    }
                }
            }
        }
    }
    JOINT RightHipJoint
    {
        OFFSET -0.1 0.0 0.0
        CHANNELS 3 Zrotation Xrotation Yrotation
        JOINT RightUpLeg
        {
            OFFSET -126.64528123005715 0.0 0.0
            CHANNELS 3 Zrotation Xrotation Yrotation
            JOINT RightLeg
            {
                OFFSET 0.0 0.0 -407.97291302369104
                CHANNELS 3 Zrotation Xrotation Yrotation
                JOINT RightFoot
                {
                    OFFSET 0.0 0.0 -391.29666652917206
                    CHANNELS 3 Zrotation Xrotation Yrotation
                    End Site
                    {
                        OFFSET 0.0 -0.1 0.0
                    }
                }
            }
        }
    }
}
MOTION
Frames: 12
Frame Time: 0.03333333333333333
0.0 0.0 824.2053123670577 25.191084902183093 -10.36213300012938 5.886332474039909 0.0 -1.590277340731758e-15 0.0 -0.1855297675597861 -5.595743331171432 -0.5274280229115397 1.0607113755354207 36.86687393821413 -3.4202139106770337 0.0 -3.1805546814635168e-15 0.0 0.0 -1.590277340731758e-15 0.0 -0.17804220399150034 -5.254060412889194 -2.4850264305319327 2.8855763921941304 1.6084033217612515e-15 -4.0510417489274545e-17 0.0 3.1805546814635168e-15 0.0 -97.17574255905942 -57.796359572517495 -52.235742683635266 -63.0831226556901 1.084264995031761e-14 6.6552078377274936e-15 3.531125038440127e-31 6.361109362927035e-15 -6.361109362927035e-15 0.0 3.1805546814635168e-15 0.0 -5.018631920338752 -10.503876544604239 -8.143086013794052 0.0 3.1805546814635168e-15 0.0 90.8241713478676 -53.17307692103792 44.22522435221398 69.00416349314851 -5.2422259032384925e-15 3.603162486834772e-15 3.1805546814635168e-15 0.0 0.0 0.0 -1.590277340731758e-15 0.0 -0.1856480911101802 -5.355473209941988 -6.34946627387762 -3.1342478794782758 35.38143337558064 7.497390780432858 -3.1805546814635168e-15 2.2069531490250793e-32 -7.951386703658792e-16
0.0 0.0 824.2053123670577 25.229904879937333 -10.545769435441988 5.838389266587554 0.0 0.0 0.0 -0.17353024748175483 -5.492694082695316 -0.5099680224987184 1.016328704172528 37.09864082831173 -3.2605130485126885 0.0 0.0 -7.951386703658792e-16 0.0 0.0 0.0 -0.16581417332268364 -5.12511871705957 -2.5412400530263852 2.9163913340808247 3.2524404766401286e-15 -8.781897656906491e-16 0.0 0.0 0.0 -96.78822570607409 -57.8199568747321 -51.710062027585266 -62.84226158390588 2.5611723984651837e-15 -1.3343765714288297e-14 0.0 0.0 0.0 0.0 0.0 0.0 -4.852989791131539 -10.881458993782163 -7.991738677507045 0.0 0.0 0.0 90.0352758776938 -52.86486159916435 43.19188122654383 69.04789895003938 4.256112494295912e-15 -1.0648594813355969e-14 7.951386703658792e-16 0.0 0.0 0.0 0.0 0.0 -0.17204608112004505 -5.186648173407505 -6.23064943235008 -3.132554874933108 35.556527874321105 7.32297293145255 0.0 0.0 7.951386703658792e-16
0.0 0.0 824.2053123670577 25.223209386723227 -10.71622845329766 5.8320963966895 0.0 0.0 0.0 -0.17284009286419416 -5.568952287655759 -0.5103755724516804 1.0050742227328295 37.44520611844018 -3.1640410279850357 0.0 0.0 7.951386703658792e-16 0.0 0.0 0.0 -0.15963684391089375 -5.019433319739219 -2.5462304023378484 2.954068584247467 1.8443287745796855e-16 -8.0015852248212455e-16 0.0 0.0 0.0 -96.41100995930417 -57.796226323297866 -51.06995146724222 -62.55867202055429 8.154746359461728e-15 4.954136105201505e-15 0.0 0.0 0.0 0.0 0.0 0.0 -4.9052007796173935 -11.254732996012983 -7.956815298681257 0.0 0.0 0.0 89.50272793365875 -52.96534618789097 42.37616672292637 68.99823640719329 8.845303600009327e-15 1.639520929386995e-15 7.951386703658792e-16 0.0 0.0 0.0 0.0 0.0 -0.16357758426831479 -5.006673471448456 -6.22126736672064 -3.167374034653109 35.71648453105093 7.357603390907195 0.0 -3.1805546814635168e-15 0.0
0.0 0.0 824.2053123670577 25.17598120427321 -10.854511378806993 5.814983682478963 0.0 0.0 0.0 -0.1671256597783859 -5.454808497153479 -0.5558919353527408 0.9568491639517385 37.5383780030756 -2.988485234346701 0.0 0.0 7.951386703658792e-16 0.0 0.0 0.0 -0.1539294844772626 -4.897786468639987 -2.544447776604914 2.967111778524523 -5.235911976936187e-16 -7.81844949435049e-16 0.0 3.1743426606012833e-15 0.0 -95.93266748008573 -57.736456076712486 -50.44369105305058 -62.4029919324432 -2.1048741236848236e-16 -1.5001169783347834e-14 6.3611093629270335e-15 -3.531125038440127e-31 -6.3611093629270335e-15 0.0 3.1743426606012833e-15 0.0 -4.870674197894517 -11.540488639366465 -7.821074697825698 0.0 3.1743426606012833e-15 0.0 89.01532399315302 -52.91481815173057 41.631221100529984 68.99810507803694 7.863624590753248e-15 -5.404327990760392e-15 7.951386703658791e-16 0.0 0.0 0.0 0.0 0.0 -0.15719148755574108 -4.862391339443403 -6.15429560335963 -3.138061900006892 35.74640143279098 7.319567144180027 0.0 0.0 -1.5902773407317584e-15
0.0 0.0 824.2053123670577 25.196439787104392 -10.963330251843445 5.820453748948477 0.0 0.0 0.0 -0.18107789067378774 -5.566928480518307 -0.5584082799211706 1.0447025554265603 37.73025126377513 -2.998510649499735 3.1805546814635164e-15 0.0 0.0 0.0 0.0 0.0 -0.16197087940328828 -4.864941680760421 -2.4850532724519536 2.9151641237929344 5.997274673890321e-15 -9.479972627395135e-16 0.0 0.0 0.0 -95.90904528724906 -57.77688176141996 -50.24178623585392 -62.5207154378666 9.723131045334722e-16 2.2914686720077282e-14 -3.531125038440127e-31 6.3611093629270335e-15 6.3611093629270335e-15 0.0 0.0 0.0 -4.876005276847801 -11.85506426504514 -7.890690975956831 0.0 0.0 0.0 88.61385997333426 -53.009413902155686 41.03317904758073 69.29275230693696 3.6163531337370865e-15 5.233135039269284e-15 7.951386703658792e-16 0.0 0.0 0.0 0.0 0.0 -0.16371513877495594 -4.786685887864945 -6.203323333415515 -3.108192391612088 35.85111308559143 7.426425586226954 3.1805546814635164e-15 -2.2069531490250793e-32 -7.951386703658791e-16
0.0 0.0 824.2053123670577 25.16013117000276 -10.985308417423218 5.801127526585159 0.0 0.0 0.0 -0.18384548717919144 -5.476320183249515 -0.5441417926721012 1.0871349187487331 37.35327474405122 -3.0962996416315267 0.0 0.0 7.951386703658792e-16 0.0 0.0 0.0 -0.16426308013291424 -4.783622781526713 -2.423883165241081 2.9634542843286655 -6.016846525964256e-17 7.969610004505269e-16 0.0 0.0 0.0 -96.27273423937696 -57.743737992622826 -50.53635458953587 -62.32639334542736 4.652526053738717e-15 -4.62024844211275e-15 -6.3611093629270335e-15 0.0 0.0 0.0 0.0 0.0 -4.851302702887833 -12.141634857775216 -7.95030060544826 0.0 0.0 0.0 88.4337155553933 -53.16709157299838 40.77162662649853 69.52698927579014 7.546341573420943e-15 2.50544993332147e-15 -1.5902773407317584e-15 0.0 0.0 0.0 0.0 0.0 -0.16360974261415234 -4.640134742205775 -6.25505813496103 -3.0702417322118283 35.568131468307875 7.552929431955394 -3.1805546814635168e-15 -3.9756933518293955e-16 -1.5902773407317584e-15
0.0 0.0 824.2053123670577 25.205585973311802 -10.981449497612497 5.855531798746365 0.0 0.0 0.0 -0.17971713080040852 -5.172556389349074 -0.6582266205070143 1.0486678357596204 37.24949973492209 -3.035417622650669 0.0 0.0 0.0 0.0 0.0 0.0 -0.16702322210255807 -4.697664872885123 -2.437965536562204 2.9511290421306366 -1.0817166094412172e-14 1.8694459054252035e-15 0.0 0.0 -7.951386703658792e-16 -96.76691205880282 -57.917721961557966 -50.880949058258985 -62.28518603639607 -1.361091123587893e-15 -8.224432951487418e-16 0.0 0.0 0.0 0.0 0.0 -7.951386703658792e-16 -4.842433914446329 -12.285922829553263 -8.031542269537521 0.0 0.0 -7.951386703658792e-16 88.34235257445546 -53.213555693271275 40.67979282543162 69.62395839974052 -4.9371286296263545e-15 -4.314794924684907e-15 7.951386703658792e-16 0.0 0.0 0.0 0.0 0.0 -0.16160661702210977 -4.427208581291973 -6.403443315882884 -3.09496781000789 35.28750521081169 7.697454763326767 0.0 0.0 -7.951386703658792e-16
0.0 0.0 824.2053123670577 25.25753742485729 -11.087723902951101 5.901459664633413 0.0 0.0 0.0 -0.17228839193629036 -4.91944834097505 -0.7333301926662764 0.9988383634835072 37.08399835892204 -2.9483152416293166 0.0 0.0 7.951386703658792e-16 0.0 0.0 0.0 -0.1667295471100086 -4.647803154733311 -2.4447553708413747 2.8836797408330592 1.0496719052593578e-14 -1.0595946708828403e-15 0.0 0.0 0.0 -97.14398686249888 -58.09092074894329 -51.28896548663389 -62.39135354462511 -7.163790576792856e-15 1.797135063365286e-14 0.0 0.0 0.0 0.0 0.0 0.0 -4.955204252941987 -12.292395971548922 -8.143879779803012 0.0 0.0 0.0 88.21281945727638 -53.3850698385109 40.612468335049556 70.17796132521042 1.5483728816046212e-15 -8.86171349535446e-15 7.951386703658792e-16 0.0 0.0 0.0 0.0 0.0 -0.15301023895438468 -4.150367529154027 -6.510224745311041 -3.139188762506234 35.121677226603424 7.7917186158404865 0.0 0.0 7.951386703658792e-16
0.0 0.0 824.2053123670577 25.251653644603646 -11.22206405935345 5.917952299490968 0.0 0.0 0.0 -0.15846199045829057 -4.51866277674561 -0.8296156896784785 0.9235624962479894 36.84923207283248 -2.745207970205756 0.0 -1.9878466759146977e-16 0.0 0.0 0.0 0.0 -0.16378854797790707 -4.54765033974243 -2.463419718213613 2.934969307852357 6.403864654583634e-15 -9.594540130272576e-16 0.0 0.0 0.0 -97.93903938592113 -58.37463599422155 -52.23563794339076 -62.398709846892764 4.655440875903512e-15 -4.6173114036774264e-15 0.0 0.0 0.0 0.0 0.0 0.0 -5.0006375237548335 -12.47033784618223 -8.186581499956697 0.0 0.0 0.0 87.97200933559755 -53.671500020536506 40.436839984312364 70.64128725623101 3.892661801293498e-15 -2.758264360925964e-15 -2.3854160110976376e-15 0.0 0.0 0.0 0.0 0.0 -0.140033979253951 -3.7728925791280186 -6.610302305395917 -3.1881800649375998 34.981401492825036 7.876179297363151 0.0 0.0 0.0
0.0 0.0 824.2053123670577 25.310748461658605 -11.301088883759848 5.901679573723137 0.0 0.0 0.0 -0.14270127392958298 -4.218039518159582 -0.7700545287685492 0.9053828876342676 36.49860528698949 -2.7476294515512985 0.0 0.0 7.951386703658792e-16 0.0 0.0 0.0 -0.15522464117082785 -4.455919707663049 -2.3950362557613794 2.953170511126527 -2.991647311261602e-15 7.71156368478758e-17 0.0 0.0 0.0 -98.52587604345403 -58.57243427754257 -53.14247471404457 -62.62544883511663 -1.6122350804217252e-14 5.083775452950876e-15 0.0 0.0 0.0 0.0 0.0 0.0 -5.119165036996112 -12.433923609664566 -8.14402020520803 0.0 0.0 0.0 87.9965236476058 -53.89597903978187 40.653544106608294 71.19043274522467 -9.81441510006189e-15 -1.6443225024555978e-14 -7.951386703658792e-16 0.0 0.0 0.0 0.0 0.0 -0.12600348466335534 -3.500175523119611 -6.666711955875296 -3.239742648782793 34.683479984603714 8.09661418565556 0.0 0.0 0.0
0.0 0.0 824.2053123670577 25.34266514170288 -11.344207906040669 5.883594127852916 -3.1805546814635168e-15 0.0 0.0 -0.13845905832295427 -4.162482954065947 -0.7962632092937529 0.8662508494750316 36.61474154036067 -2.5959661195016994 0.0 0.0 7.951386703658791e-16 -3.1805546814635168e-15 0.0 0.0 -0.15039645119436862 -4.38675019360851 -2.3719670465710556 3.008104154996347 -2.324911894116565e-15 8.56457209165571e-16 0.0 0.0 0.0 -98.82252399798706 -58.854470616540965 -53.73857153965544 -62.89180068218732 2.0955885684361482e-14 5.358407316197134e-15 0.0 0.0 0.0 0.0 0.0 0.0 -5.283627880539534 -12.475137050605282 -8.167164496873651 0.0 0.0 0.0 88.18107336619313 -54.104184323580185 41.004320475625576 71.76980829320549 1.3668857460922345e-16 -7.950211742129459e-15 -3.975693351829396e-16 0.0 0.0 -3.1805546814635168e-15 0.0 0.0 -0.12277763022205286 -3.4617177586854964 -6.773410468714155 -3.355110360207003 34.83504744121375 8.271877026358737 -5.517382872562698e-33 -3.975693351829396e-16 -1.5902773407317584e-15
0.0 0.0 824.2053123670577 25.364817438158294 -11.300788369414652 5.848393284212748 0.0 0.0 0.0 -0.13604290142916603 -4.336421597158154 -0.742979285361066 0.8214673630595912 36.56969249277978 -2.595434964647162 3.1805546814635164e-15 -3.379339349054986e-15 7.951386703658792e-16 0.0 0.0 0.0 -0.14051404869301942 -4.346802492283456 -2.3024319404110427 2.9698642354198608 -2.296123358063281e-15 5.95218521910026e-17 0.0 0.0 0.0 -98.79818254180229 -58.974454242369255 -53.928542677910336 -62.99833847754646 5.423785523733087e-15 3.3235918702002773e-15 0.0 0.0 0.0 0.0 0.0 0.0 -5.308210123489663 -12.573523427827057 -8.192179675401777 0.0 0.0 0.0 88.13459462581379 -54.21805766650384 41.21405371710973 72.18259414645246 -1.2526555493186177e-14 -1.4484053315306244e-14 -7.951386703658792e-16 0.0 0.0 0.0 0.0 0.0 -0.12070195204712099 -3.6093994522423984 -6.726146260470275 -3.3901778113738716 34.75477971848114 8.354099431269841 0.0 0.0 -2.3854160110976376e-15
